<svg width="1534" height="1534" viewBox="0 0 1534 1534" fill="none" xmlns="http://www.w3.org/2000/svg">
<rect width="1534" height="1534" fill="white"/>
<path d="M1186.8 727.3H867.3L587.7 1007L747.4 1166.8L1186.8 727.3Z" fill="#39CEFD"/>
<path d="M507.8 927.1L348 767.3L867.3 248H1186.8L507.8 927.1Z" fill="#39CEFD"/>
<path d="M747.4 1166.8L867.3 1286.6H1186.8L907.2 1007L747.4 1166.8Z" fill="#03569B"/>
<path d="M747.4 1166.8L984.4 1084.7L907.2 1007L747.4 1166.8Z" fill="url(#paint0_linear)"/>
<path d="M747.484 847.139L587.679 1006.94L747.484 1166.75L907.289 1006.94L747.484 847.139Z" fill="#16B9FD"/>
<path d="M1186.8 727.3L907.2 1007L1186.8 1286.7H867.3L747.4 1166.8L587.6 1007L867.3 727.3H1186.8V727.3ZM867.3 248L348 767.3L507.8 927.1L1186.8 248H867.3V248Z" fill="url(#paint1_radial)"/>
<g filter="url(#filter0_d)">
<rect x="348" y="248" width="340" height="340" rx="47" fill="#F4F4F4"/>
</g>
<path fill-rule="evenodd" clip-rule="evenodd" d="M522.5 401C513.249 401 505.75 408.611 505.75 418C505.75 427.389 513.249 435 522.5 435C531.751 435 539.25 427.389 539.25 418C539.25 408.611 531.751 401 522.5 401ZM489 418C489 399.222 503.998 384 522.5 384C541.002 384 556 399.222 556 418C556 436.778 541.002 452 522.5 452C503.998 452 489 436.778 489 418Z" fill="#1FBCFD"/>
<path fill-rule="evenodd" clip-rule="evenodd" d="M522 333C519.746 333 517.584 333.896 515.99 335.49C514.396 337.084 513.5 339.246 513.5 341.5V342.979C513.482 347.372 512.181 351.664 509.755 355.326C507.33 358.989 503.886 361.862 499.848 363.593C499.13 363.901 498.374 364.107 497.602 364.208C493.933 365.493 489.983 365.81 486.139 365.113C481.71 364.31 477.624 362.199 474.406 359.051L474.339 358.986L473.83 358.475C473.04 357.685 472.099 357.055 471.067 356.627C470.036 356.199 468.93 355.979 467.812 355.979C466.695 355.979 465.589 356.199 464.558 356.627C463.526 357.055 462.588 357.682 461.799 358.472L461.792 358.479C461.002 359.268 460.375 360.206 459.947 361.238C459.519 362.269 459.299 363.375 459.299 364.492C459.299 365.61 459.519 366.716 459.947 367.747C460.375 368.779 461.002 369.717 461.792 370.506L462.372 371.086C465.519 374.303 467.63 378.39 468.433 382.819C469.22 387.159 468.715 391.633 466.983 395.686C465.406 399.821 462.644 403.403 459.041 405.98C455.365 408.609 450.982 410.072 446.464 410.178L446.265 410.18H445.5C443.246 410.18 441.084 411.076 439.49 412.67C437.896 414.264 437 416.426 437 418.68C437 420.934 437.896 423.096 439.49 424.69C441.084 426.284 443.246 427.18 445.5 427.18H446.979C451.372 427.198 455.664 428.499 459.326 430.925C462.976 433.342 465.842 436.77 467.575 440.79C469.377 444.896 469.913 449.448 469.113 453.861C468.31 458.29 466.199 462.376 463.051 465.594L462.986 465.661L462.475 466.17C461.685 466.96 461.055 467.901 460.627 468.933C460.199 469.964 459.979 471.07 459.979 472.188C459.979 473.305 460.199 474.411 460.627 475.442C461.055 476.474 461.682 477.412 462.472 478.201L462.479 478.208C463.268 478.998 464.206 479.625 465.238 480.053C466.269 480.481 467.375 480.701 468.492 480.701C469.61 480.701 470.716 480.481 471.747 480.053C472.779 479.625 473.717 478.998 474.506 478.208L475.086 477.628C478.303 474.481 482.39 472.37 486.819 471.567C491.159 470.78 495.633 471.285 499.686 473.017C503.821 474.594 507.403 477.356 509.98 480.959C512.609 484.635 514.072 489.018 514.178 493.536L514.18 493.735V494.5C514.18 496.754 515.076 498.916 516.67 500.51C518.264 502.104 520.426 503 522.68 503C524.934 503 527.096 502.104 528.69 500.51C530.284 498.916 531.18 496.754 531.18 494.5V493.055L531.18 493.021C531.198 488.628 532.499 484.336 534.925 480.674C537.342 477.024 540.771 474.157 544.791 472.425C548.897 470.623 553.448 470.087 557.861 470.887C562.29 471.69 566.376 473.801 569.594 476.949L569.661 477.014L570.17 477.525C570.96 478.315 571.901 478.945 572.933 479.373C573.964 479.801 575.07 480.021 576.188 480.021C577.305 480.021 578.411 479.801 579.442 479.373C580.474 478.945 581.412 478.318 582.201 477.528L582.208 477.521C582.998 476.732 583.625 475.794 584.053 474.762C584.481 473.731 584.701 472.625 584.701 471.508C584.701 470.39 584.481 469.284 584.053 468.253C583.625 467.221 582.998 466.283 582.208 465.494L581.628 464.914C578.481 461.697 576.37 457.61 575.567 453.181C574.767 448.768 575.303 444.217 577.105 440.111C578.837 436.091 581.704 432.662 585.354 430.245C589.016 427.819 593.308 426.518 597.701 426.5L597.735 426.5L598.5 426.5C600.754 426.5 602.916 425.604 604.51 424.01C606.104 422.416 607 420.254 607 418C607 415.746 606.104 413.584 604.51 411.99C602.916 410.396 600.754 409.5 598.5 409.5H597.055L597.021 409.5C592.628 409.482 588.336 408.181 584.674 405.755C581.011 403.33 578.138 399.886 576.407 395.848C576.099 395.13 575.893 394.374 575.792 393.602C574.507 389.933 574.19 385.983 574.887 382.139C575.69 377.71 577.801 373.624 580.949 370.406L581.014 370.339L581.525 369.83C582.315 369.04 582.945 368.099 583.373 367.067C583.801 366.036 584.021 364.93 584.021 363.812C584.021 362.695 583.801 361.589 583.373 360.558C582.945 359.526 582.318 358.588 581.528 357.799L581.521 357.792C580.732 357.002 579.794 356.375 578.762 355.947C577.731 355.519 576.625 355.299 575.508 355.299C574.39 355.299 573.284 355.519 572.253 355.947C571.221 356.375 570.283 357.002 569.494 357.792L568.914 358.372C565.697 361.519 561.61 363.63 557.181 364.433C552.768 365.233 548.216 364.697 544.11 362.895C540.09 361.162 536.662 358.296 534.245 354.646C531.819 350.984 530.518 346.692 530.5 342.299L530.5 342.265V341.5C530.5 339.246 529.604 337.084 528.01 335.49C526.416 333.896 524.254 333 522 333ZM584.9 443.5L592.676 446.932C592.231 447.942 592.098 449.062 592.295 450.149C592.489 451.223 592.998 452.215 593.756 453L594.222 453.466C594.223 453.467 594.221 453.465 594.222 453.466C596.591 455.834 598.474 458.648 599.757 461.743C601.04 464.838 601.701 468.156 601.701 471.508C601.701 474.859 601.04 478.177 599.757 481.272C598.474 484.368 596.593 487.18 594.222 489.549L588.215 483.535L594.229 489.542C591.86 491.913 589.048 493.794 585.952 495.077C582.857 496.36 579.539 497.021 576.188 497.021C572.836 497.021 569.518 496.36 566.423 495.077C563.328 493.794 560.517 491.915 558.15 489.545C558.148 489.544 558.151 489.547 558.15 489.545L557.68 489.076C556.895 488.318 555.903 487.809 554.829 487.615C553.742 487.418 552.622 487.551 551.612 487.996L551.529 488.033C550.538 488.458 549.693 489.162 549.098 490.06C548.506 490.955 548.187 492.003 548.18 493.076V494.5C548.18 501.263 545.493 507.749 540.711 512.531C535.929 517.313 529.443 520 522.68 520C515.917 520 509.431 517.313 504.649 512.531C499.867 507.749 497.18 501.263 497.18 494.5V493.857C497.14 492.776 496.783 491.73 496.153 490.849C495.508 489.947 494.606 489.26 493.566 488.878C493.398 488.816 493.232 488.749 493.068 488.676C492.058 488.231 490.938 488.098 489.851 488.295C488.777 488.489 487.785 488.998 487 489.756L486.534 490.222C486.533 490.223 486.535 490.221 486.534 490.222C484.166 492.591 481.352 494.474 478.257 495.757C475.162 497.04 471.844 497.701 468.492 497.701C465.141 497.701 461.823 497.04 458.728 495.757C455.635 494.475 452.825 492.597 450.458 490.229C448.087 487.86 446.206 485.048 444.923 481.952C443.64 478.857 442.979 475.539 442.979 472.188C442.979 468.836 443.64 465.518 444.923 462.423C446.206 459.327 448.087 456.515 450.458 454.146L450.924 453.68C451.682 452.895 452.191 451.903 452.385 450.829C452.582 449.742 452.449 448.622 452.004 447.612L451.967 447.529C451.542 446.538 450.838 445.693 449.94 445.098C449.045 444.506 447.997 444.187 446.924 444.18H445.5C438.737 444.18 432.251 441.493 427.469 436.711C422.687 431.929 420 425.443 420 418.68C420 411.917 422.687 405.431 427.469 400.649C432.251 395.867 438.737 393.18 445.5 393.18H446.143C447.224 393.14 448.27 392.783 449.151 392.153C450.053 391.508 450.74 390.606 451.122 389.566C451.184 389.398 451.251 389.232 451.324 389.068C451.769 388.058 451.902 386.938 451.705 385.851C451.511 384.777 451.002 383.785 450.244 383L449.778 382.534C447.407 380.165 445.526 377.353 444.243 374.257C442.96 371.162 442.299 367.844 442.299 364.492C442.299 361.141 442.96 357.823 444.243 354.728C445.526 351.633 447.405 348.822 449.775 346.455C452.142 344.085 454.953 342.206 458.048 340.923C461.143 339.64 464.461 338.979 467.812 338.979C471.164 338.979 474.482 339.64 477.577 340.923C480.673 342.206 483.485 344.087 485.854 346.458L486.32 346.924C487.105 347.682 488.097 348.191 489.171 348.385C490.258 348.582 491.378 348.449 492.388 348.004C492.932 347.763 493.499 347.582 494.078 347.46C494.671 347.058 495.182 346.542 495.582 345.94C496.174 345.045 496.493 343.997 496.5 342.924V341.5C496.5 334.737 499.187 328.251 503.969 323.469C508.751 318.687 515.237 316 522 316C528.763 316 535.249 318.687 540.031 323.469C544.813 328.251 547.5 334.737 547.5 341.5V342.244C547.507 343.317 547.826 344.365 548.418 345.26C549.013 346.158 549.858 346.863 550.848 347.287L550.932 347.323C551.942 347.769 553.062 347.902 554.149 347.705C555.223 347.511 556.215 347.002 557 346.244L557.466 345.778C559.835 343.407 562.647 341.526 565.743 340.243C568.838 338.96 572.156 338.299 575.508 338.299C578.859 338.299 582.177 338.96 585.272 340.243C588.368 341.526 591.18 343.407 593.549 345.778C595.916 348.145 597.795 350.955 599.077 354.048C600.36 357.143 601.021 360.461 601.021 363.812C601.021 367.164 600.36 370.482 599.077 373.577C597.794 376.672 595.915 379.483 593.545 381.85C593.544 381.852 593.547 381.849 593.545 381.85L593.076 382.32C592.318 383.105 591.809 384.097 591.615 385.171C591.418 386.258 591.551 387.378 591.996 388.388C592.237 388.932 592.418 389.499 592.54 390.078C592.942 390.671 593.458 391.182 594.06 391.582C594.955 392.174 596.003 392.493 597.076 392.5H598.5C605.263 392.5 611.749 395.187 616.531 399.969C621.313 404.751 624 411.237 624 418C624 424.763 621.313 431.249 616.531 436.031C611.749 440.813 605.263 443.5 598.5 443.5H597.756C596.683 443.507 595.635 443.826 594.74 444.418C593.842 445.013 593.137 445.858 592.713 446.848L584.9 443.5Z" fill="#1FBCFD"/>
<defs>
<filter id="filter0_d" x="344" y="248" width="348" height="348" filterUnits="userSpaceOnUse" color-interpolation-filters="sRGB">
<feFlood flood-opacity="0" result="BackgroundImageFix"/>
<feColorMatrix in="SourceAlpha" type="matrix" values="0 0 0 0 0 0 0 0 0 0 0 0 0 0 0 0 0 0 127 0"/>
<feOffset dy="4"/>
<feGaussianBlur stdDeviation="2"/>
<feColorMatrix type="matrix" values="0 0 0 0 0 0 0 0 0 0 0 0 0 0 0 0 0 0 0.25 0"/>
<feBlend mode="normal" in2="BackgroundImageFix" result="effect1_dropShadow"/>
<feBlend mode="normal" in="SourceGraphic" in2="effect1_dropShadow" result="shape"/>
</filter>
<linearGradient id="paint0_linear" x1="794.023" y1="1197.63" x2="913.038" y2="1078.61" gradientUnits="userSpaceOnUse">
<stop stop-color="#1A237E" stop-opacity="0.4"/>
<stop offset="1" stop-color="#1A237E" stop-opacity="0"/>
</linearGradient>
<radialGradient id="paint1_radial" cx="0" cy="0" r="1" gradientUnits="userSpaceOnUse" gradientTransform="translate(371.565 318.796) scale(1270.72)">
<stop stop-color="white" stop-opacity="0.1"/>
<stop offset="1" stop-color="white" stop-opacity="0"/>
</radialGradient>
</defs>
</svg>
