<svg width="1534" height="1534" viewBox="0 0 1534 1534" fill="none" xmlns="http://www.w3.org/2000/svg">
<rect width="1534" height="1534" fill="white"/>
<path d="M1217 714H798.36L432 1080.57L641.255 1290L1217 714Z" fill="#39CEFD"/>
<path d="M327.371 977L118 767.573L798.39 87H1217L327.371 977Z" fill="#39CEFD"/>
<path d="M641 1290.18L798.174 1447H1217L850.478 1081L641 1290.18Z" fill="#03569B"/>
<path d="M641 1290L951 1182.62L850.021 1081L641 1290Z" fill="url(#paint0_linear)"/>
<path d="M641.146 871.605L431.873 1080.88L641.145 1290.15L850.418 1080.88L641.146 871.605Z" fill="#16B9FD"/>
<path d="M1217 714.561L850.667 1080.78L1217 1447H798.39L641.296 1290.01L431.925 1080.78L798.39 714.561H1217V714.561ZM798.39 87L118 766.935L327.371 976.165L1217 87H798.39V87Z" fill="url(#paint1_radial)"/>
<g filter="url(#filter0_d)">
<rect x="641" y="176" width="801" height="801" rx="47" fill="#F4F4F4"/>
</g>
<path fill-rule="evenodd" clip-rule="evenodd" d="M1050.5 548.25C1027.44 548.25 1008.75 567.166 1008.75 590.5C1008.75 613.834 1027.44 632.75 1050.5 632.75C1073.56 632.75 1092.25 613.834 1092.25 590.5C1092.25 567.166 1073.56 548.25 1050.5 548.25ZM967 590.5C967 543.832 1004.38 506 1050.5 506C1096.62 506 1134 543.832 1134 590.5C1134 637.168 1096.62 675 1050.5 675C1004.38 675 967 637.168 967 590.5Z" fill="#1FBCFD"/>
<path fill-rule="evenodd" clip-rule="evenodd" d="M1049.5 379.25C1043.9 379.25 1038.52 381.476 1034.56 385.437C1030.6 389.399 1028.38 394.772 1028.38 400.375V404.051C1028.33 414.968 1025.1 425.635 1019.07 434.737C1013.04 443.84 1004.48 450.981 994.447 455.282C992.661 456.047 990.781 456.561 988.863 456.812C979.745 460.005 969.929 460.792 960.374 459.059C949.368 457.064 939.212 451.817 931.216 443.995L931.049 443.832L929.782 442.564C927.82 440.6 925.482 439.033 922.918 437.97C920.353 436.907 917.604 436.36 914.828 436.36C912.052 436.36 909.303 436.907 906.739 437.97C904.174 439.033 901.844 440.591 899.882 442.556L899.866 442.572C897.901 444.534 896.343 446.864 895.28 449.429C894.217 451.993 893.67 454.742 893.67 457.518C893.67 460.294 894.217 463.043 895.28 465.608C896.343 468.172 897.901 470.502 899.866 472.464L901.306 473.905C909.128 481.901 914.374 492.058 916.369 503.064C918.325 513.851 917.07 524.97 912.767 535.042C908.847 545.321 901.984 554.221 893.028 560.627C883.891 567.162 873 570.797 861.77 571.059L861.276 571.065H859.375C853.772 571.065 848.399 573.291 844.437 577.252C840.476 581.214 838.25 586.587 838.25 592.19C838.25 597.793 840.476 603.166 844.437 607.128C848.399 611.089 853.772 613.315 859.375 613.315H863.051C873.968 613.359 884.635 616.594 893.737 622.622C902.808 628.629 909.931 637.149 914.237 647.139C918.717 657.345 920.048 668.657 918.059 679.626C916.064 690.632 910.817 700.788 902.995 708.784L902.832 708.951L901.564 710.218C899.6 712.18 898.033 714.518 896.97 717.082C895.907 719.647 895.36 722.396 895.36 725.172C895.36 727.948 895.907 730.697 896.97 733.261C898.033 735.826 899.591 738.156 901.556 740.118L901.572 740.134C903.534 742.099 905.864 743.657 908.429 744.72C910.993 745.783 913.742 746.33 916.518 746.33C919.294 746.33 922.043 745.783 924.608 744.72C927.172 743.657 929.502 742.099 931.464 740.134L932.905 738.694C940.901 730.872 951.058 725.626 962.064 723.631C972.851 721.675 983.969 722.93 994.042 727.233C1004.32 731.153 1013.22 738.016 1019.63 746.972C1026.16 756.109 1029.8 767 1030.06 778.23L1030.06 778.724V780.625C1030.06 786.228 1032.29 791.601 1036.25 795.563C1040.21 799.524 1045.59 801.75 1051.19 801.75C1056.79 801.75 1062.17 799.524 1066.13 795.563C1070.09 791.601 1072.31 786.228 1072.31 780.625V777.034L1072.32 776.949C1072.36 766.032 1075.59 755.365 1081.62 746.263C1087.63 737.191 1096.15 730.067 1106.14 725.762C1116.35 721.283 1127.66 719.952 1138.63 721.941C1149.63 723.936 1159.79 729.183 1167.78 737.005L1167.95 737.168L1169.22 738.436C1171.18 740.4 1173.52 741.967 1176.08 743.03C1178.65 744.093 1181.4 744.64 1184.17 744.64C1186.95 744.64 1189.7 744.093 1192.26 743.03C1194.83 741.967 1197.16 740.409 1199.12 738.444L1199.13 738.428C1201.1 736.466 1202.66 734.136 1203.72 731.571C1204.78 729.007 1205.33 726.258 1205.33 723.482C1205.33 720.706 1204.78 717.957 1203.72 715.392C1202.66 712.828 1201.1 710.498 1199.13 708.536L1197.69 707.095C1189.87 699.099 1184.63 688.942 1182.63 677.936C1180.64 666.968 1181.97 655.657 1186.45 645.451C1190.76 635.46 1197.88 626.94 1206.95 620.932C1216.06 614.904 1226.72 611.669 1237.64 611.625L1237.72 611.625L1239.62 611.625C1245.23 611.625 1250.6 609.399 1254.56 605.438C1258.52 601.476 1260.75 596.103 1260.75 590.5C1260.75 584.897 1258.52 579.524 1254.56 575.562C1250.6 571.601 1245.23 569.375 1239.62 569.375H1236.03L1235.95 569.375C1225.03 569.331 1214.37 566.096 1205.26 560.068C1196.16 554.04 1189.02 545.482 1184.72 535.447C1183.95 533.661 1183.44 531.781 1183.19 529.863C1180 520.745 1179.21 510.929 1180.94 501.374C1182.94 490.368 1188.18 480.212 1196 472.216L1196.17 472.049L1197.44 470.782C1199.4 468.82 1200.97 466.482 1202.03 463.918C1203.09 461.353 1203.64 458.604 1203.64 455.828C1203.64 453.052 1203.09 450.303 1202.03 447.739C1200.97 445.174 1199.41 442.844 1197.44 440.882L1197.43 440.866C1195.47 438.901 1193.14 437.343 1190.57 436.28C1188.01 435.217 1185.26 434.67 1182.48 434.67C1179.71 434.67 1176.96 435.217 1174.39 436.28C1171.83 437.343 1169.5 438.901 1167.54 440.866L1166.1 442.306C1158.1 450.128 1147.94 455.374 1136.94 457.369C1125.97 459.358 1114.65 458.027 1104.45 453.547C1094.46 449.241 1085.94 442.118 1079.93 433.047C1073.9 423.945 1070.67 413.278 1070.63 402.361L1070.62 402.276V400.375C1070.62 394.772 1068.4 389.399 1064.44 385.437C1060.48 381.476 1055.1 379.25 1049.5 379.25ZM1205.82 653.875L1225.15 662.405C1224.04 664.915 1223.71 667.699 1224.2 670.399C1224.69 673.068 1225.95 675.534 1227.83 677.486L1228.99 678.644C1229 678.647 1228.99 678.641 1228.99 678.644C1234.88 684.528 1239.56 691.523 1242.75 699.213C1245.94 706.907 1247.58 715.153 1247.58 723.482C1247.58 731.81 1245.94 740.057 1242.75 747.751C1239.56 755.444 1234.89 762.434 1228.99 768.32L1214.06 753.374L1229.01 768.303C1223.12 774.195 1216.13 778.87 1208.44 782.059C1200.75 785.249 1192.5 786.89 1184.17 786.89C1175.84 786.89 1167.6 785.249 1159.9 782.059C1152.21 778.871 1145.23 774.2 1139.34 768.311C1139.34 768.309 1139.35 768.314 1139.34 768.311L1138.18 767.145C1136.22 765.261 1133.76 763.997 1131.09 763.513C1128.39 763.023 1125.6 763.354 1123.09 764.461L1122.89 764.553C1120.43 765.608 1118.33 767.358 1116.85 769.591C1115.37 771.815 1114.58 774.42 1114.56 777.087V780.625C1114.56 797.433 1107.89 813.553 1096 825.438C1084.12 837.323 1068 844 1051.19 844C1034.38 844 1018.26 837.323 1006.38 825.438C994.492 813.553 987.815 797.433 987.815 780.625V779.027C987.715 776.34 986.828 773.74 985.262 771.551C983.659 769.31 981.419 767.603 978.833 766.652C978.415 766.498 978.003 766.331 977.595 766.151C975.085 765.044 972.301 764.713 969.601 765.203C966.931 765.687 964.465 766.951 962.514 768.835L961.356 769.993C961.353 769.996 961.359 769.99 961.356 769.993C955.472 775.882 948.477 780.561 940.787 783.749C933.093 786.939 924.847 788.58 916.518 788.58C908.19 788.58 899.943 786.939 892.249 783.749C884.563 780.563 877.579 775.894 871.697 770.01C865.805 764.124 861.13 757.134 857.941 749.441C854.751 741.747 853.11 733.5 853.11 725.172C853.11 716.843 854.751 708.597 857.941 700.903C861.13 693.209 865.805 686.22 871.697 680.334L872.855 679.176C874.739 677.225 876.003 674.759 876.487 672.089C876.977 669.389 876.646 666.605 875.539 664.095L875.447 663.887C874.392 661.426 872.642 659.326 870.409 657.848C868.185 656.375 865.58 655.582 862.913 655.565H859.375C842.567 655.565 826.447 648.888 814.562 637.003C802.677 625.118 796 608.998 796 592.19C796 575.382 802.677 559.262 814.562 547.377C826.447 535.492 842.567 528.815 859.375 528.815H860.973C863.66 528.715 866.26 527.828 868.449 526.262C870.69 524.659 872.397 522.419 873.348 519.833C873.502 519.415 873.669 519.003 873.849 518.595C874.956 516.085 875.287 513.301 874.797 510.601C874.313 507.931 873.049 505.465 871.165 503.514L870.007 502.356C864.115 496.47 859.44 489.481 856.251 481.787C853.061 474.093 851.42 465.847 851.42 457.518C851.42 449.19 853.061 440.943 856.251 433.249C859.439 425.559 864.11 418.573 869.999 412.689C875.883 406.8 882.869 402.129 890.559 398.941C898.253 395.751 906.5 394.11 914.828 394.11C923.157 394.11 931.403 395.751 939.097 398.941C946.791 402.13 953.78 406.805 959.666 412.697L960.824 413.855C962.775 415.739 965.241 417.003 967.911 417.487C970.611 417.977 973.395 417.646 975.905 416.539C977.258 415.941 978.666 415.49 980.106 415.188C981.579 414.189 982.85 412.907 983.842 411.409C985.315 409.185 986.108 406.58 986.125 403.913V400.375C986.125 383.567 992.802 367.447 1004.69 355.562C1016.57 343.677 1032.69 337 1049.5 337C1066.31 337 1082.43 343.677 1094.31 355.562C1106.2 367.447 1112.88 383.567 1112.88 400.375V402.223C1112.89 404.89 1113.68 407.495 1115.16 409.719C1116.64 411.952 1118.74 413.703 1121.2 414.758L1121.41 414.847C1123.92 415.955 1126.7 416.287 1129.4 415.797C1132.07 415.313 1134.53 414.049 1136.49 412.165L1137.64 411.007C1143.53 405.115 1150.52 400.44 1158.21 397.251C1165.91 394.061 1174.15 392.42 1182.48 392.42C1190.81 392.42 1199.06 394.061 1206.75 397.251C1214.44 400.44 1221.43 405.115 1227.32 411.007C1233.2 416.889 1237.87 423.873 1241.06 431.559C1244.25 439.253 1245.89 447.5 1245.89 455.828C1245.89 464.157 1244.25 472.403 1241.06 480.097C1237.87 487.787 1233.2 494.774 1227.31 500.658C1227.31 500.66 1227.31 500.655 1227.31 500.658L1226.15 501.824C1224.26 503.775 1223 506.241 1222.51 508.911C1222.02 511.611 1222.35 514.395 1223.46 516.905C1224.06 518.258 1224.51 519.666 1224.81 521.106C1225.81 522.579 1227.09 523.85 1228.59 524.842C1230.82 526.315 1233.42 527.108 1236.09 527.125H1239.62C1256.43 527.125 1272.55 533.802 1284.44 545.687C1296.32 557.572 1303 573.692 1303 590.5C1303 607.308 1296.32 623.428 1284.44 635.313C1272.55 647.198 1256.43 653.875 1239.62 653.875H1237.78C1235.11 653.892 1232.51 654.685 1230.28 656.158C1228.05 657.636 1226.3 659.735 1225.24 662.197L1205.82 653.875Z" fill="#1FBCFD"/>
<defs>
<filter id="filter0_d" x="637" y="176" width="809" height="809" filterUnits="userSpaceOnUse" color-interpolation-filters="sRGB">
<feFlood flood-opacity="0" result="BackgroundImageFix"/>
<feColorMatrix in="SourceAlpha" type="matrix" values="0 0 0 0 0 0 0 0 0 0 0 0 0 0 0 0 0 0 127 0"/>
<feOffset dy="4"/>
<feGaussianBlur stdDeviation="2"/>
<feColorMatrix type="matrix" values="0 0 0 0 0 0 0 0 0 0 0 0 0 0 0 0 0 0 0.25 0"/>
<feBlend mode="normal" in2="BackgroundImageFix" result="effect1_dropShadow"/>
<feBlend mode="normal" in="SourceGraphic" in2="effect1_dropShadow" result="shape"/>
</filter>
<linearGradient id="paint0_linear" x1="701.984" y1="1330.32" x2="857.642" y2="1174.65" gradientUnits="userSpaceOnUse">
<stop stop-color="#1A237E" stop-opacity="0.4"/>
<stop offset="1" stop-color="#1A237E" stop-opacity="0"/>
</linearGradient>
<radialGradient id="paint1_radial" cx="0" cy="0" r="1" gradientUnits="userSpaceOnUse" gradientTransform="translate(148.874 179.695) scale(1664.91 1663.79)">
<stop stop-color="white" stop-opacity="0.1"/>
<stop offset="1" stop-color="white" stop-opacity="0"/>
</radialGradient>
</defs>
</svg>
