<svg width="1534" height="1534" viewBox="0 0 1534 1534" fill="none" xmlns="http://www.w3.org/2000/svg">
<path d="M1534 0H0V1534H1534V0Z" fill="white"/>
<path d="M1217 714H798.36L432 1080.57L641.255 1290L1217 714Z" fill="#39CEFD"/>
<path d="M327.371 977L118 767.573L798.39 87H1217L327.371 977Z" fill="#39CEFD"/>
<path d="M641 1290.18L798.174 1447H1217L850.478 1081L641 1290.18Z" fill="#03569B"/>
<path d="M641 1290L951 1182.62L850.021 1081L641 1290Z" fill="url(#paint0_linear)"/>
<path d="M641.146 871.605L431.873 1080.88L641.145 1290.15L850.418 1080.88L641.146 871.605Z" fill="#16B9FD"/>
<path d="M1217 714.561L850.667 1080.78L1217 1447H798.39L641.296 1290.01L431.925 1080.78L798.39 714.561H1217ZM798.39 87L118 766.935L327.371 976.165L1217 87H798.39Z" fill="url(#paint1_radial)"/>
<g filter="url(#filter0_d)">
<path d="M1395 176H688C662.043 176 641 197.043 641 223V930C641 955.957 662.043 977 688 977H1395C1420.96 977 1442 955.957 1442 930V223C1442 197.043 1420.96 176 1395 176Z" fill="#F4F4F4"/>
</g>
<path d="M803 419L987 603L803 787" stroke="#08599D" stroke-width="102" stroke-linecap="round" stroke-linejoin="round"/>
<path d="M1280 790H1072" stroke="#08599D" stroke-width="102" stroke-linecap="round" stroke-linejoin="round"/>
<defs>
<filter id="filter0_d" x="637" y="176" width="809" height="809" filterUnits="userSpaceOnUse" color-interpolation-filters="sRGB">
<feFlood flood-opacity="0" result="BackgroundImageFix"/>
<feColorMatrix in="SourceAlpha" type="matrix" values="0 0 0 0 0 0 0 0 0 0 0 0 0 0 0 0 0 0 127 0"/>
<feOffset dy="4"/>
<feGaussianBlur stdDeviation="2"/>
<feColorMatrix type="matrix" values="0 0 0 0 0 0 0 0 0 0 0 0 0 0 0 0 0 0 0.25 0"/>
<feBlend mode="normal" in2="BackgroundImageFix" result="effect1_dropShadow"/>
<feBlend mode="normal" in="SourceGraphic" in2="effect1_dropShadow" result="shape"/>
</filter>
<linearGradient id="paint0_linear" x1="701.984" y1="1330.32" x2="857.642" y2="1174.65" gradientUnits="userSpaceOnUse">
<stop stop-color="#1A237E" stop-opacity="0.4"/>
<stop offset="1" stop-color="#1A237E" stop-opacity="0"/>
</linearGradient>
<radialGradient id="paint1_radial" cx="0" cy="0" r="1" gradientUnits="userSpaceOnUse" gradientTransform="translate(148.874 179.695) scale(1664.91 1663.79)">
<stop stop-color="white" stop-opacity="0.1"/>
<stop offset="1" stop-color="white" stop-opacity="0"/>
</radialGradient>
</defs>
</svg>
